<svg width="585" height="164" viewBox="0 0 585 164" fill="none" xmlns="http://www.w3.org/2000/svg">
<path d="M176.008 102.875V111H146.125H138.703V54.125H148.82H175.773V62.2891H148.82V77.7188H172.062V85.6875H148.82V102.875H176.008ZM217.258 68.7344V111H208.078L207.844 106.82C205.083 110.128 201.138 111.781 196.008 111.781C191.633 111.781 188.208 110.505 185.734 107.953C183.26 105.401 182.023 101.43 182.023 96.0391V68.7344H191.75V96.1172C191.75 98.8776 192.349 100.857 193.547 102.055C194.771 103.227 196.372 103.812 198.352 103.812C202.857 103.812 205.904 102.211 207.492 99.0078V68.7344H217.258ZM245.812 67.9531C246.359 67.9531 246.971 68.0052 247.648 68.1094C248.352 68.2135 248.872 68.3307 249.211 68.4609L249.133 77.6406C247.831 77.4323 246.542 77.3281 245.266 77.3281C240.917 77.3281 238 78.9557 236.516 82.2109V111H226.789V68.7344H236.047L236.32 73.5C237.388 71.7292 238.716 70.362 240.305 69.3984C241.893 68.4349 243.729 67.9531 245.812 67.9531ZM252.453 89.4766C252.453 85.362 253.234 81.6771 254.797 78.4219C256.385 75.1667 258.664 72.6146 261.633 70.7656C264.602 68.8906 268.091 67.9531 272.102 67.9531C276.164 67.9531 279.68 68.8906 282.648 70.7656C285.643 72.6146 287.922 75.1667 289.484 78.4219C291.073 81.6771 291.867 85.362 291.867 89.4766V90.2969C291.867 94.4115 291.073 98.0964 289.484 101.352C287.922 104.607 285.656 107.159 282.688 109.008C279.719 110.857 276.216 111.781 272.18 111.781C268.143 111.781 264.628 110.857 261.633 109.008C258.664 107.159 256.385 104.607 254.797 101.352C253.234 98.0964 252.453 94.4115 252.453 90.2969V89.4766ZM262.18 90.2969C262.18 94.3073 263.013 97.5885 264.68 100.141C266.346 102.693 268.846 103.969 272.18 103.969C274.393 103.969 276.242 103.37 277.727 102.172C279.237 100.948 280.344 99.3073 281.047 97.25C281.776 95.1927 282.141 92.875 282.141 90.2969V89.4766C282.141 86.9245 281.776 84.6198 281.047 82.5625C280.344 80.4792 279.237 78.8255 277.727 77.6016C276.216 76.3776 274.341 75.7656 272.102 75.7656C269.888 75.7656 268.039 76.3776 266.555 77.6016C265.07 78.8255 263.964 80.4792 263.234 82.5625C262.531 84.6198 262.18 86.9245 262.18 89.4766V90.2969ZM320.383 67.9531C323.898 67.9531 326.893 68.8385 329.367 70.6094C331.867 72.3802 333.755 74.8802 335.031 78.1094C336.307 81.3385 336.945 85.1146 336.945 89.4375V90.2578C336.945 94.3984 336.294 98.0964 334.992 101.352C333.716 104.607 331.841 107.159 329.367 109.008C326.893 110.857 323.938 111.781 320.5 111.781C315.969 111.781 312.297 110.258 309.484 107.211V127.25H299.758V68.7344H308.703L309.094 72.9922C311.932 69.6328 315.695 67.9531 320.383 67.9531ZM327.219 89.4375C327.219 85.4271 326.424 82.1719 324.836 79.6719C323.273 77.1458 320.891 75.8828 317.688 75.8828C313.885 75.8828 311.151 77.4583 309.484 80.6094V99.1641C311.177 102.367 313.938 103.969 317.766 103.969C320.943 103.969 323.312 102.693 324.875 100.141C326.438 97.5885 327.219 94.2943 327.219 90.2578V89.4375ZM378.312 101.156C378.312 105.01 378.846 108.07 379.914 110.336V111H369.992C369.576 110.089 369.211 108.773 368.898 107.055C367.57 108.487 365.982 109.633 364.133 110.492C362.284 111.352 360.188 111.781 357.844 111.781C355.083 111.781 352.609 111.234 350.422 110.141C348.234 109.047 346.529 107.536 345.305 105.609C344.081 103.682 343.469 101.521 343.469 99.125C343.469 94.6198 345.135 91.1693 348.469 88.7734C351.828 86.3776 356.581 85.1797 362.727 85.1797H368.586V82.4453C368.586 80.2057 367.974 78.4609 366.75 77.2109C365.526 75.9349 363.716 75.2969 361.32 75.2969C359.888 75.2969 358.625 75.5443 357.531 76.0391C356.438 76.5339 355.591 77.2109 354.992 78.0703C354.393 78.9297 354.094 79.8932 354.094 80.9609H344.367C344.367 78.6953 345.083 76.5729 346.516 74.5938C347.974 72.5885 350.031 70.987 352.688 69.7891C355.37 68.5651 358.43 67.9531 361.867 67.9531C365.096 67.9531 367.948 68.5 370.422 69.5938C372.896 70.6875 374.823 72.3281 376.203 74.5156C377.609 76.7031 378.312 79.3724 378.312 82.5234V101.156ZM359.719 104.008C361.75 104.008 363.547 103.526 365.109 102.562C366.698 101.599 367.857 100.44 368.586 99.0859V91.1953H363.508C360.122 91.1953 357.557 91.8073 355.812 93.0312C354.068 94.2552 353.195 95.974 353.195 98.1875C353.195 99.9062 353.768 101.312 354.914 102.406C356.06 103.474 357.661 104.008 359.719 104.008ZM440.148 81.3906C443.299 82.224 445.682 83.8255 447.297 86.1953C448.911 88.5391 449.719 91.2604 449.719 94.3594C449.719 99.75 447.987 103.878 444.523 106.742C441.06 109.581 436.19 111 429.914 111H412.766H408.938V54.125H428.469C434.875 54.125 439.797 55.401 443.234 57.9531C446.672 60.4792 448.391 64.3333 448.391 69.5156C448.391 72.1719 447.674 74.5417 446.242 76.625C444.836 78.7083 442.805 80.2969 440.148 81.3906ZM419.055 62.2891V78.0312H428.547C431.646 78.0312 434.042 77.3411 435.734 75.9609C437.453 74.5807 438.312 72.6406 438.312 70.1406C438.312 67.3802 437.518 65.388 435.93 64.1641C434.341 62.9141 431.854 62.2891 428.469 62.2891H419.055ZM429.914 102.875C433.039 102.875 435.435 102.107 437.102 100.57C438.794 99.0078 439.641 96.9375 439.641 94.3594C439.641 88.4219 436.542 85.4531 430.344 85.4531H419.055V102.875H429.914ZM492.141 101.156C492.141 105.01 492.674 108.07 493.742 110.336V111H483.82C483.404 110.089 483.039 108.773 482.727 107.055C481.398 108.487 479.81 109.633 477.961 110.492C476.112 111.352 474.016 111.781 471.672 111.781C468.911 111.781 466.438 111.234 464.25 110.141C462.062 109.047 460.357 107.536 459.133 105.609C457.909 103.682 457.297 101.521 457.297 99.125C457.297 94.6198 458.964 91.1693 462.297 88.7734C465.656 86.3776 470.409 85.1797 476.555 85.1797H482.414V82.4453C482.414 80.2057 481.802 78.4609 480.578 77.2109C479.354 75.9349 477.544 75.2969 475.148 75.2969C473.716 75.2969 472.453 75.5443 471.359 76.0391C470.266 76.5339 469.419 77.2109 468.82 78.0703C468.221 78.9297 467.922 79.8932 467.922 80.9609H458.195C458.195 78.6953 458.911 76.5729 460.344 74.5938C461.802 72.5885 463.859 70.987 466.516 69.7891C469.198 68.5651 472.258 67.9531 475.695 67.9531C478.924 67.9531 481.776 68.5 484.25 69.5938C486.724 70.6875 488.651 72.3281 490.031 74.5156C491.438 76.7031 492.141 79.3724 492.141 82.5234V101.156ZM473.547 104.008C475.578 104.008 477.375 103.526 478.938 102.562C480.526 101.599 481.685 100.44 482.414 99.0859V91.1953H477.336C473.951 91.1953 471.385 91.8073 469.641 93.0312C467.896 94.2552 467.023 95.974 467.023 98.1875C467.023 99.9062 467.596 101.312 468.742 102.406C469.888 103.474 471.49 104.008 473.547 104.008ZM523.547 67.9531C527.844 67.9531 531.151 69.2031 533.469 71.7031C535.812 74.1771 536.984 78.1875 536.984 83.7344V111H527.258V83.6562C527.258 80.8438 526.646 78.8516 525.422 77.6797C524.224 76.4818 522.375 75.8828 519.875 75.8828C518.052 75.8828 516.424 76.3255 514.992 77.2109C513.56 78.0964 512.414 79.3333 511.555 80.9219V111H501.828V68.7344H510.969L511.281 73.6172C512.792 71.7943 514.589 70.401 516.672 69.4375C518.755 68.4479 521.047 67.9531 523.547 67.9531ZM560.461 92.9531L556.203 97.2891V111H546.516V51H556.203V85.4141L559.094 81.8203L570.656 68.7344H582.375L566.711 86.3125L584.016 111H572.766L560.461 92.9531Z" fill="white"/>
<path fill-rule="evenodd" clip-rule="evenodd" d="M110 0H0V164H110V0ZM95 15H15V149H95V15Z" fill="white"/>
<rect x="30" y="74" width="50" height="15" fill="white"/>
</svg>
